<svg width="16" height="16" viewBox="0 0 16 16" fill="none" xmlns="http://www.w3.org/2000/svg">
<path d="M0.171503 5.55592C0.0595945 5.67095 -0.0020722 5.82569 5.31712e-05 5.98616C0.00217854 6.14662 0.0679221 6.29968 0.182838 6.4117L3.65316 9.79512L2.83328 14.5727L0.350403 5.73055M0.171503 5.55592L0.350056 5.73091C0.350172 5.73079 0.350287 5.73067 0.350403 5.73055M0.171503 5.55592C0.26407 5.46147 0.384974 5.39913 0.517213 5.38024M0.171503 5.55592L0.517213 5.38024M0.350403 5.73055C0.284883 5.79805 0.248785 5.88877 0.250031 5.98285C0.251279 6.07705 0.289877 6.16691 0.357343 6.23268L0.357359 6.23269L3.82768 9.61612L3.92179 9.70787L3.89956 9.8374L3.07968 14.615L3.07962 14.6153C3.06836 14.6804 3.07556 14.7474 3.10042 14.8086C3.12527 14.8698 3.16678 14.9229 3.22024 14.9617C3.2737 15.0005 3.33697 15.0236 3.40287 15.0283C3.46878 15.033 3.53468 15.0191 3.59311 14.9883L3.59349 14.9881L7.8837 12.7325L8.00004 12.6713L8.11638 12.7325L12.4066 14.9881L12.4077 14.9887C12.4747 15.0243 12.5542 15.0368 12.6309 15.0235L12.6313 15.0234C12.8245 14.9901 12.9535 14.8072 12.9204 14.6152L12.9204 14.615L12.1005 9.8374L12.0783 9.70787L12.1724 9.61612L15.6423 6.23314C15.6424 6.23304 15.6425 6.23294 15.6426 6.23283C15.6984 6.17803 15.7345 6.10728 15.7454 6.03063L15.7458 6.02786C15.7753 5.83727 15.6427 5.65687 15.4464 5.62756C15.4463 5.62755 15.4462 5.62753 15.4461 5.62752L10.6504 4.93055L10.5203 4.91164L10.4622 4.79374L8.31801 0.446865L8.3179 0.446649C8.2837 0.377146 8.22742 0.320862 8.15792 0.286662L8.15763 0.28652C7.98346 0.200536 7.77002 0.271731 7.68175 0.447502C7.68166 0.447693 7.68156 0.447884 7.68147 0.448075L5.53791 4.79374L5.47975 4.91164L5.34966 4.93055L0.553169 5.62764L0.552569 5.62772C0.475941 5.63867 0.405202 5.67479 0.350403 5.73055ZM0.517213 5.38024L0.517214 5.38024L0.517213 5.38024ZM0.517213 5.38024L5.3137 4.68315L0.517213 5.38024Z" stroke="#2F2E41" stroke-width="0.5"/>
</svg>
