<svg xmlns="http://www.w3.org/2000/svg" xmlns:xlink="http://www.w3.org/1999/xlink" viewBox="0 0 260.44 237.03"><defs><style>.cls-1{fill:url(#Gradiente_sem_nome_37);}.cls-2{fill:url(#Gradiente_sem_nome_43);}.cls-3{fill:url(#Gradiente_sem_nome_26);}.cls-4{fill:url(#Gradiente_sem_nome_45);}.cls-5{fill:url(#Gradiente_sem_nome_53);}</style><linearGradient id="Gradiente_sem_nome_37" x1="21.51" y1="170.54" x2="21.51" y2="13.02" gradientUnits="userSpaceOnUse"><stop offset="0" stop-color="#e73643"/><stop offset="0.46" stop-color="#e51a2a"/><stop offset="1" stop-color="#c0282e"/></linearGradient><linearGradient id="Gradiente_sem_nome_43" x1="263.54" y1="120.68" x2="-7.79" y2="9.59" gradientUnits="userSpaceOnUse"><stop offset="0" stop-color="#e73643"/><stop offset="0.48" stop-color="#e51a2a"/><stop offset="0.96" stop-color="#cb232c"/></linearGradient><linearGradient id="Gradiente_sem_nome_26" x1="-72.43" y1="255.65" x2="312.55" y2="94.66" gradientUnits="userSpaceOnUse"><stop offset="0.03" stop-color="#c0282e"/><stop offset="0.3" stop-color="#e51a2a"/><stop offset="0.48" stop-color="#e62836"/><stop offset="0.73" stop-color="#e73240"/><stop offset="1" stop-color="#e73643"/></linearGradient><linearGradient id="Gradiente_sem_nome_45" x1="3.67" y1="26.52" x2="60.88" y2="88.73" gradientUnits="userSpaceOnUse"><stop offset="0.15" stop-color="#cc202c"/><stop offset="1" stop-color="#71141c"/></linearGradient><linearGradient id="Gradiente_sem_nome_53" x1="250.39" y1="146.36" x2="168.44" y2="115.37" gradientUnits="userSpaceOnUse"><stop offset="0.16" stop-color="#e73443"/><stop offset="0.51" stop-color="#d7192d"/><stop offset="1" stop-color="#71141c"/></linearGradient></defs><g id="Camada_2" data-name="Camada 2"><g id="Camada_1-2" data-name="Camada 1"><path class="cls-1" d="M43,53.6v90.49a21.51,21.51,0,0,1-43,0V33.63a21.39,21.39,0,0,0,7.83,5.52Z"/><path class="cls-2" d="M259.56,107.38c1.14,6.15.84,12.94.84,18.92a21.6,21.6,0,0,1-5.46,14.33l-23.82-9.79-30-12.29L151.79,98.27l0,0L43,53.6,7.83,39.15A21.39,21.39,0,0,1,0,33.63V21.51A21.51,21.51,0,0,1,21.51,0C28,0,35,3.79,41.06,6.29L62.8,15.22l57.29,23.52L163.34,56.5,168,58.42l.13,0L247.37,91C255.06,94.17,258.26,100.35,259.56,107.38Z"/><path class="cls-3" d="M254.94,140.63a19.76,19.76,0,0,1-2.37,2.29,21.57,21.57,0,0,1-5.45,3.27L29.75,235.38a21.51,21.51,0,1,1-16.47-39.74l187.89-77.09,30,12.29h0Z"/><path class="cls-4" d="M43,53.6V71.52L0,38.24V35.93l7.65,3.14.18.08Z"/><polygon class="cls-5" points="244.72 136.44 177.84 128.12 201.17 118.55 202.61 119.14 231.12 130.85 244.72 136.44"/></g></g></svg>