<svg width="343" height="40" viewBox="0 0 343 40" fill="none" xmlns="http://www.w3.org/2000/svg">
<path d="M0 10C0 4.47715 4.47715 0 10 0H40V40H10C4.47715 40 0 35.5228 0 30V10Z" fill="#D2202C"/>
<path d="M39.5 0.5H78.5V39.5H39.5V0.5Z" fill="#FAFAFA" stroke="#D9D9D9"/>
<path d="M78.5 0.5H117.5V39.5H78.5V0.5Z" fill="#FAFAFA" stroke="#D9D9D9"/>
<path d="M117.5 0.5H156.5V39.5H117.5V0.5Z" fill="#FAFAFA" stroke="#D9D9D9"/>
<path d="M156.5 0.5H195.5V39.5H156.5V0.5Z" fill="#FAFAFA" stroke="#D9D9D9"/>
<path d="M195.5 0.5H234.5V39.5H195.5V0.5Z" fill="#FAFAFA" stroke="#D9D9D9"/>
<path d="M234.5 0.5H333C338.247 0.5 342.5 4.75329 342.5 10V30C342.5 35.2467 338.247 39.5 333 39.5H234.5V0.5Z" fill="#FAFAFA" stroke="#D9D9D9"/>
<path d="M17.496 25V14.6L18.408 15.544H15.128V13.8H19.576V25H17.496Z" fill="white"/>
<path d="M54.56 25V23.608L59.008 19.384C59.3813 19.032 59.6587 18.7227 59.84 18.456C60.0213 18.1893 60.1387 17.944 60.192 17.72C60.256 17.4853 60.288 17.2667 60.288 17.064C60.288 16.552 60.112 16.1573 59.76 15.88C59.408 15.592 58.8907 15.448 58.208 15.448C57.664 15.448 57.168 15.544 56.72 15.736C56.2827 15.928 55.904 16.2213 55.584 16.616L54.128 15.496C54.5653 14.9093 55.152 14.456 55.888 14.136C56.6347 13.8053 57.4667 13.64 58.384 13.64C59.1947 13.64 59.8987 13.7733 60.496 14.04C61.104 14.296 61.568 14.664 61.888 15.144C62.2187 15.624 62.384 16.1947 62.384 16.856C62.384 17.2187 62.336 17.5813 62.24 17.944C62.144 18.296 61.9627 18.6693 61.696 19.064C61.4293 19.4587 61.04 19.9013 60.528 20.392L56.704 24.024L56.272 23.24H62.816V25H54.56Z" fill="black"/>
<path d="M97.224 25.16C96.4347 25.16 95.6613 25.048 94.904 24.824C94.1573 24.5893 93.528 24.2693 93.016 23.864L93.912 22.248C94.3173 22.5787 94.808 22.8453 95.384 23.048C95.96 23.2507 96.5627 23.352 97.192 23.352C97.9387 23.352 98.52 23.2027 98.936 22.904C99.352 22.5947 99.56 22.1787 99.56 21.656C99.56 21.144 99.368 20.7387 98.984 20.44C98.6 20.1413 97.9813 19.992 97.128 19.992H96.104V18.568L99.304 14.76L99.576 15.544H93.56V13.8H101.192V15.192L97.992 19L96.904 18.36H97.528C98.904 18.36 99.9333 18.6693 100.616 19.288C101.309 19.896 101.656 20.68 101.656 21.64C101.656 22.2693 101.496 22.8507 101.176 23.384C100.856 23.9173 100.365 24.3493 99.704 24.68C99.0533 25 98.2267 25.16 97.224 25.16Z" fill="#545454"/>
<path d="M132.544 22.456V21.016L138.064 13.8H140.288L134.848 21.016L133.808 20.696H142.688V22.456H132.544ZM138.688 25V22.456L138.752 20.696V18.44H140.704V25H138.688Z" fill="#545454"/>
<path d="M175.416 25.16C174.627 25.16 173.853 25.048 173.096 24.824C172.349 24.5893 171.72 24.2693 171.208 23.864L172.088 22.248C172.493 22.5787 172.984 22.8453 173.56 23.048C174.147 23.2507 174.755 23.352 175.384 23.352C176.12 23.352 176.696 23.1973 177.112 22.888C177.539 22.5787 177.752 22.1627 177.752 21.64C177.752 21.288 177.661 20.9787 177.48 20.712C177.309 20.4453 177 20.2427 176.552 20.104C176.115 19.9653 175.512 19.896 174.744 19.896H172.04L172.616 13.8H179.192V15.544H173.384L174.472 14.552L174.04 19.112L172.952 18.136H175.208C176.317 18.136 177.208 18.2853 177.88 18.584C178.563 18.872 179.059 19.2773 179.368 19.8C179.688 20.312 179.848 20.8987 179.848 21.56C179.848 22.2107 179.688 22.808 179.368 23.352C179.048 23.896 178.557 24.3333 177.896 24.664C177.245 24.9947 176.419 25.16 175.416 25.16Z" fill="#545454"/>
<path d="M209.952 25.112C209.589 25.112 209.28 24.9893 209.024 24.744C208.768 24.488 208.64 24.168 208.64 23.784C208.64 23.3787 208.768 23.0587 209.024 22.824C209.28 22.5787 209.589 22.456 209.952 22.456C210.315 22.456 210.624 22.5787 210.88 22.824C211.136 23.0587 211.264 23.3787 211.264 23.784C211.264 24.168 211.136 24.488 210.88 24.744C210.624 24.9893 210.315 25.112 209.952 25.112ZM213.858 25.112C213.496 25.112 213.186 24.9893 212.93 24.744C212.674 24.488 212.546 24.168 212.546 23.784C212.546 23.3787 212.674 23.0587 212.93 22.824C213.186 22.5787 213.496 22.456 213.858 22.456C214.221 22.456 214.53 22.5787 214.786 22.824C215.042 23.0587 215.17 23.3787 215.17 23.784C215.17 24.168 215.042 24.488 214.786 24.744C214.53 24.9893 214.221 25.112 213.858 25.112ZM217.765 25.112C217.402 25.112 217.093 24.9893 216.837 24.744C216.581 24.488 216.453 24.168 216.453 23.784C216.453 23.3787 216.581 23.0587 216.837 22.824C217.093 22.5787 217.402 22.456 217.765 22.456C218.127 22.456 218.437 22.5787 218.693 22.824C218.949 23.0587 219.077 23.3787 219.077 23.784C219.077 24.168 218.949 24.488 218.693 24.744C218.437 24.9893 218.127 25.112 217.765 25.112Z" fill="#545454"/>
<path d="M250.504 25V13.8H255.112C256.104 13.8 256.952 13.96 257.656 14.28C258.371 14.6 258.92 15.0587 259.304 15.656C259.688 16.2533 259.88 16.9627 259.88 17.784C259.88 18.6053 259.688 19.3147 259.304 19.912C258.92 20.5093 258.371 20.968 257.656 21.288C256.952 21.608 256.104 21.768 255.112 21.768H251.656L252.584 20.792V25H250.504ZM252.584 21.016L251.656 20.008H255.016C255.933 20.008 256.621 19.816 257.08 19.432C257.549 19.0373 257.784 18.488 257.784 17.784C257.784 17.0693 257.549 16.52 257.08 16.136C256.621 15.752 255.933 15.56 255.016 15.56H251.656L252.584 14.536V21.016ZM261.687 25V16.456H263.591V18.808L263.367 18.12C263.623 17.544 264.023 17.1067 264.567 16.808C265.122 16.5093 265.81 16.36 266.631 16.36V18.264C266.546 18.2427 266.466 18.232 266.391 18.232C266.316 18.2213 266.242 18.216 266.167 18.216C265.41 18.216 264.807 18.44 264.359 18.888C263.911 19.3253 263.687 19.9813 263.687 20.856V25H261.687ZM272.09 25.112C271.215 25.112 270.436 24.9253 269.754 24.552C269.071 24.168 268.532 23.6453 268.138 22.984C267.743 22.3227 267.546 21.5707 267.546 20.728C267.546 19.8747 267.743 19.1227 268.138 18.472C268.532 17.8107 269.071 17.2933 269.754 16.92C270.436 16.5467 271.215 16.36 272.09 16.36C272.975 16.36 273.759 16.5467 274.442 16.92C275.135 17.2933 275.674 17.8053 276.058 18.456C276.452 19.1067 276.65 19.864 276.65 20.728C276.65 21.5707 276.452 22.3227 276.058 22.984C275.674 23.6453 275.135 24.168 274.442 24.552C273.759 24.9253 272.975 25.112 272.09 25.112ZM272.09 23.4C272.58 23.4 273.018 23.2933 273.402 23.08C273.786 22.8667 274.084 22.5573 274.298 22.152C274.522 21.7467 274.634 21.272 274.634 20.728C274.634 20.1733 274.522 19.6987 274.298 19.304C274.084 18.8987 273.786 18.5893 273.402 18.376C273.018 18.1627 272.586 18.056 272.106 18.056C271.615 18.056 271.178 18.1627 270.794 18.376C270.42 18.5893 270.122 18.8987 269.898 19.304C269.674 19.6987 269.562 20.1733 269.562 20.728C269.562 21.272 269.674 21.7467 269.898 22.152C270.122 22.5573 270.42 22.8667 270.794 23.08C271.178 23.2933 271.61 23.4 272.09 23.4ZM270.73 15.288L272.89 13.096H275.242L272.458 15.288H270.73ZM277.113 25L280.873 20.104L280.841 21.176L277.257 16.456H279.481L281.993 19.816H281.145L283.673 16.456H285.833L282.217 21.176L282.233 20.104L285.977 25H283.721L281.081 21.432L281.913 21.544L279.321 25H277.113ZM287.453 25V16.456H289.453V25H287.453ZM288.461 15.048C288.087 15.048 287.778 14.9307 287.533 14.696C287.298 14.4613 287.181 14.1787 287.181 13.848C287.181 13.5067 287.298 13.224 287.533 13C287.778 12.7653 288.087 12.648 288.461 12.648C288.834 12.648 289.138 12.76 289.373 12.984C289.618 13.1973 289.741 13.4693 289.741 13.8C289.741 14.152 289.623 14.4507 289.389 14.696C289.154 14.9307 288.845 15.048 288.461 15.048ZM302.862 16.36C303.544 16.36 304.147 16.4933 304.67 16.76C305.203 17.0267 305.619 17.4373 305.918 17.992C306.216 18.536 306.366 19.24 306.366 20.104V25H304.366V20.36C304.366 19.6027 304.2 19.0373 303.87 18.664C303.539 18.2907 303.064 18.104 302.446 18.104C302.008 18.104 301.619 18.2 301.278 18.392C300.947 18.584 300.686 18.8667 300.494 19.24C300.312 19.6133 300.222 20.088 300.222 20.664V25H298.222V20.36C298.222 19.6027 298.056 19.0373 297.726 18.664C297.395 18.2907 296.92 18.104 296.302 18.104C295.864 18.104 295.475 18.2 295.134 18.392C294.803 18.584 294.542 18.8667 294.35 19.24C294.168 19.6133 294.078 20.088 294.078 20.664V25H292.078V16.456H293.982V18.728L293.646 18.056C293.934 17.5013 294.35 17.08 294.894 16.792C295.448 16.504 296.078 16.36 296.782 16.36C297.582 16.36 298.275 16.5573 298.862 16.952C299.459 17.3467 299.854 17.944 300.046 18.744L299.262 18.472C299.539 17.832 299.998 17.32 300.638 16.936C301.278 16.552 302.019 16.36 302.862 16.36ZM312.777 25.112C311.902 25.112 311.124 24.9253 310.441 24.552C309.758 24.168 309.22 23.6453 308.825 22.984C308.43 22.3227 308.233 21.5707 308.233 20.728C308.233 19.8747 308.43 19.1227 308.825 18.472C309.22 17.8107 309.758 17.2933 310.441 16.92C311.124 16.5467 311.902 16.36 312.777 16.36C313.662 16.36 314.446 16.5467 315.129 16.92C315.822 17.2933 316.361 17.8053 316.745 18.456C317.14 19.1067 317.337 19.864 317.337 20.728C317.337 21.5707 317.14 22.3227 316.745 22.984C316.361 23.6453 315.822 24.168 315.129 24.552C314.446 24.9253 313.662 25.112 312.777 25.112ZM312.777 23.4C313.268 23.4 313.705 23.2933 314.089 23.08C314.473 22.8667 314.772 22.5573 314.985 22.152C315.209 21.7467 315.321 21.272 315.321 20.728C315.321 20.1733 315.209 19.6987 314.985 19.304C314.772 18.8987 314.473 18.5893 314.089 18.376C313.705 18.1627 313.273 18.056 312.793 18.056C312.302 18.056 311.865 18.1627 311.481 18.376C311.108 18.5893 310.809 18.8987 310.585 19.304C310.361 19.6987 310.249 20.1733 310.249 20.728C310.249 21.272 310.361 21.7467 310.585 22.152C310.809 22.5573 311.108 22.8667 311.481 23.08C311.865 23.2933 312.297 23.4 312.777 23.4ZM323.399 23.128V21.464L330.151 18.936V19.864L323.399 17.336V15.672L330.775 18.536V20.264L323.399 23.128Z" fill="#545454"/>
</svg>
